PathFileType	4	(X/Y/Z)	 s02c0102.trc
DataRate	CameraRate	NumFrames	NumMarkers	Units	OrigDataRate	OrigDataStartFrame	OrigNumFrames
200	200	4	51	mm	200	1751	2000
Frame#	Time	racr			lacr			c7			jug			rlel			rdr			llel			ldr			s2			lic			ric			lasi			rasi			rpsi			lpsi			rgt			lgt			rth1			rth2			rth3			rth4			rlfc			rmfc			rsh1			rsh2			rsh3			rsh4			rlmal			rmmal			rcal			rtoe			rmt5			rmt1			lth1			lth2			lth4			lth3			llfc			lmfc			lsh1			lsh2			lsh3			lsh4			llmal			lmmal			lcal			ltoe			lmt5			SBIKE			LBIKE			RBIKE			
		X1	Y1	Z1	X2	Y2	Z2	X3	Y3	Z3	X4	Y4	Z4	X5	Y5	Z5	X6	Y6	Z6	X7	Y7	Z7	X8	Y8	Z8	X9	Y9	Z9	X10	Y10	Z10	X11	Y11	Z11	X12	Y12	Z12	X13	Y13	Z13	X14	Y14	Z14	X15	Y15	Z15	X16	Y16	Z16	X17	Y17	Z17	X18	Y18	Z18	X19	Y19	Z19	X20	Y20	Z20	X21	Y21	Z21	X22	Y22	Z22	X23	Y23	Z23	X24	Y24	Z24	X25	Y25	Z25	X26	Y26	Z26	X27	Y27	Z27	X28	Y28	Z28	X29	Y29	Z29	X30	Y30	Z30	X31	Y31	Z31	X32	Y32	Z32	X33	Y33	Z33	X34	Y34	Z34	X35	Y35	Z35	X36	Y36	Z36	X37	Y37	Z37	X38	Y38	Z38	X39	Y39	Z39	X40	Y40	Z40	X41	Y41	Z41	X42	Y42	Z42	X43	Y43	Z43	X44	Y44	Z44	X45	Y45	Z45	X46	Y46	Z46	X47	Y47	Z47	X48	Y48	Z48	X49	Y49	Z49	X50	Y50	Z50	X51	Y51	Z51	
1751	8.7550	567.020135	1203.878427	-164.048408	540.078954	1208.385092	-492.057737	539.267160	1244.671188	-331.360912	489.349365	1110.491976	-330.656503	574.698479	973.399774	-29.631517	724.725384	844.961258	-104.927568	493.827876	943.069254	-584.490336	694.109422	857.908632	-509.737203	8.838206	1098.539849	-293.156682	137.196130	1110.682410	-445.383444	141.548968	1100.290874	-162.420106	182.380169	1075.726776	-418.627673	191.154291	1067.074524	-188.606001	37.058387	1152.471655	-253.274602	40.780329	1166.896964	-337.086349	112.046895	1011.988001	-121.152492	89.546551	1024.964840	-484.966956	200.269334	966.674814	-124.429962	282.765865	935.754228	-127.832250	341.109244	877.839585	-103.012623	302.041099	958.720223	-150.406384	424.551736	764.385386	-130.590465	408.369463	745.988381	-240.286148	364.376489	666.361494	-119.557033	312.694737	594.853706	-142.099291	237.634354	553.832335	-136.269038	323.474041	589.725462	-178.900887	143.334343	488.016194	-143.597490	166.648911	498.265610	-223.539158	61.316751	510.006721	-188.550766	234.640678	281.391406	-187.430449	154.320947	356.423538	-129.960784	180.635702	344.044310	-237.936517	217.475723	949.775223	-496.746446	296.952557	915.004015	-493.646277	317.976711	941.593613	-479.365277	348.926939	842.563597	-493.822174	426.102338	776.464729	-471.704749	437.565062	745.509935	-370.535411	420.565029	671.616208	-494.972953	428.135046	586.429441	-481.245817	390.258654	504.323638	-484.478097	446.919522	585.640521	-444.794651	353.438403	400.667528	-474.797724	370.519057	397.386114	-397.717172	285.462448	352.837378	-439.869644	572.575562	310.095992	-436.571398	465.672194	301.811229	-501.319226	-162.915662	859.395149	-311.317210	37.077449	85.945314	-514.234758	33.946729	83.040587	-113.985967	
1752	8.7600	565.967689	1203.925358	-162.277353	541.102960	1206.985100	-491.512279	539.410285	1244.341623	-330.107632	488.739927	1110.449576	-329.232276	574.429011	972.985977	-28.588584	724.764510	844.894721	-104.814112	494.614806	942.088257	-585.545066	694.170017	857.107044	-509.535623	9.418328	1095.964689	-294.805668	140.316875	1107.627063	-444.901793	141.421478	1099.361182	-163.052533	183.917722	1073.954342	-419.481981	191.746632	1066.948169	-189.054592	37.050193	1149.943350	-254.572752	42.197476	1164.219847	-338.529092	113.417416	1011.341841	-121.251613	91.295346	1022.023620	-485.298716	201.837258	968.420330	-123.229755	285.138556	939.964718	-126.652149	344.837866	883.254757	-102.518156	302.422380	962.183007	-151.872754	430.480414	771.431424	-129.806806	416.312921	753.896874	-241.167439	369.930736	674.019966	-118.857976	318.590599	603.108196	-140.979592	241.718675	563.090082	-136.468164	328.102374	597.988423	-178.585388	146.772005	498.533724	-143.850827	170.013302	509.591207	-223.357569	64.945523	521.036204	-188.686295	236.488621	291.229157	-187.699630	156.712596	366.907634	-130.174348	182.940916	354.279789	-238.225630	218.178485	945.096001	-497.389523	296.911250	908.901166	-494.003459	318.466128	935.125742	-479.747667	347.449265	835.469431	-494.176203	422.976350	767.986369	-471.910775	434.753626	736.961082	-370.996822	418.472442	662.912550	-495.077127	426.723622	577.797257	-481.144684	389.859761	495.276823	-485.033043	444.989892	577.452044	-444.494847	353.407978	391.616326	-475.557093	370.147062	388.209935	-398.428680	285.151524	345.125627	-440.620129	571.569174	297.359318	-436.509316	464.655405	290.938970	-501.439119	-162.934241	859.426116	-311.477502	37.083699	85.879300	-514.271938	33.932386	83.006486	-114.004280	
1753	8.7650	564.920029	1204.273221	-160.434526	542.283647	1205.979863	-490.818572	539.618547	1244.338119	-328.837319	488.257112	1110.714225	-327.847896	574.164530	972.600621	-27.810284	724.882964	844.770219	-104.975007	495.759641	941.494517	-586.782241	694.375787	856.571499	-509.339805	10.237933	1093.605032	-296.159564	142.582774	1105.150363	-445.001556	141.363348	1098.934499	-163.783341	185.621542	1072.563313	-420.463987	191.100756	1066.979182	-190.475694	37.166886	1147.970925	-255.967657	43.076054	1161.783956	-339.902493	114.609541	1011.158617	-121.409860	93.416236	1019.192202	-485.702699	202.870721	970.503770	-124.392097	287.425064	944.338534	-126.575756	348.060613	889.126253	-101.850252	303.559427	966.478711	-151.645045	436.141914	778.885102	-129.140786	422.510191	761.223361	-240.519157	374.811016	682.082835	-118.686279	321.878875	611.568272	-141.673715	245.994324	572.331831	-136.552554	332.252205	605.722379	-179.066419	150.517624	509.017912	-144.173797	171.662862	520.022573	-223.467141	68.715058	531.928331	-188.849803	238.874143	301.071228	-187.640559	159.751600	377.462629	-130.343767	185.820541	364.515010	-238.357641	219.175961	940.822214	-497.906034	297.112774	902.939270	-494.387719	319.205246	928.655362	-480.076411	345.992819	828.490657	-494.405047	419.731980	759.520398	-472.119067	432.304321	728.440725	-371.487118	415.796538	654.186967	-495.383057	424.887109	569.294319	-481.519710	388.705929	486.272533	-485.580812	442.365491	569.224312	-444.738328	352.614067	382.927942	-476.764740	369.232060	379.349257	-399.407733	284.209025	337.785985	-441.622845	569.733058	284.885808	-436.451545	462.970402	280.293071	-501.596598	-162.874636	859.406353	-311.519423	37.095160	85.826289	-514.277092	33.950246	83.016039	-114.016879	
1754	8.7700	563.828636	1204.885161	-158.548491	543.557216	1205.438089	-489.860940	539.886543	1244.675147	-327.473367	487.750178	1111.355684	-326.458404	573.975875	972.345744	-27.409149	725.028092	844.789875	-104.990128	497.237468	941.315279	-588.109373	694.747325	856.207838	-509.265645	11.018452	1091.959808	-297.545196	144.779651	1103.227900	-445.147583	141.331991	1098.886011	-164.557375	187.383722	1071.541110	-421.279616	191.688006	1067.581220	-191.062988	37.290442	1146.710155	-257.436654	43.955304	1160.009851	-341.309579	115.774765	1011.345993	-121.786617	95.725476	1016.572130	-486.082229	203.907550	973.228211	-124.393155	289.169564	949.179981	-125.848207	350.766708	895.253078	-101.014590	304.866738	971.977315	-151.546474	441.569391	786.844790	-128.396470	428.632087	768.931893	-240.146647	380.674434	690.166258	-117.963256	326.507997	620.347736	-141.407633	250.301282	581.716914	-136.616364	337.452792	614.140442	-178.789579	154.457003	519.339675	-144.587236	175.191708	530.049906	-223.697206	72.846351	542.675764	-189.215254	242.214361	311.290414	-187.842407	163.575214	387.995366	-130.103336	189.204646	374.632883	-238.444957	220.417064	936.707929	-498.431061	297.531889	896.916577	-494.915678	320.074618	922.233110	-480.409389	344.570075	821.419176	-494.579670	416.255609	751.006790	-472.415402	429.287448	719.562263	-371.914492	412.502290	645.636853	-495.862051	422.250721	560.740278	-482.259811	386.753416	477.416991	-486.361810	439.441685	560.503294	-445.052744	351.484981	374.442785	-477.843341	367.635361	370.710308	-400.363706	282.753165	330.656156	-442.798175	567.231928	272.631474	-436.107859	460.771609	269.830960	-501.741210	-162.868940	859.521065	-311.524112	37.098100	85.848177	-514.270390	33.985760	83.039282	-113.992566	
